<svg width="48" height="48" viewBox="0 0 48 48" fill="none" xmlns="http://www.w3.org/2000/svg">
<g clip-path="url(#clip0_555_125)">
<path d="M6.13086 14.4229L23.9996 24.2029L41.8684 14.4229" stroke="white" stroke-width="3" stroke-linecap="round" stroke-linejoin="round"/>
<path d="M24 24.2041V43.4941" stroke="white" stroke-width="3" stroke-linecap="round" stroke-linejoin="round"/>
<path d="M41.22 34.282L24.72 43.3158C24.4992 43.4366 24.2516 43.4999 24 43.4999C23.7484 43.4999 23.5008 43.4366 23.28 43.3158L6.78 34.282C6.5444 34.1531 6.34772 33.9633 6.21052 33.7324C6.07331 33.5016 6.00061 33.2381 6 32.9695V15.0333C6.00061 14.7647 6.07331 14.5012 6.21052 14.2704C6.34772 14.0395 6.5444 13.8497 6.78 13.7208L23.28 4.68703C23.5008 4.56624 23.7484 4.50293 24 4.50293C24.2516 4.50293 24.4992 4.56624 24.72 4.68703L41.22 13.7208C41.4556 13.8497 41.6523 14.0395 41.7895 14.2704C41.9267 14.5012 41.9994 14.7647 42 15.0333V32.9658C42.0001 33.235 41.9277 33.4992 41.7904 33.7308C41.6532 33.9624 41.4562 34.1528 41.22 34.282Z" stroke="white" stroke-width="3" stroke-linecap="round" stroke-linejoin="round"/>
<path d="M15.293 9.05859L33.0005 18.7505V28.5005" stroke="white" stroke-width="3" stroke-linecap="round" stroke-linejoin="round"/>
</g>
<defs>
<clipPath id="clip0_555_125">
<rect width="48" height="48" fill="white"/>
</clipPath>
</defs>
</svg>
